<svg id="그룹_10446" data-name="그룹 10446" xmlns="http://www.w3.org/2000/svg" width="18.914" height="18.914" viewBox="0 0 18.914 18.914">
  <path id="패스_9734" data-name="패스 9734" d="M13.455,0h-8A5.459,5.459,0,0,0,0,5.459v8a5.459,5.459,0,0,0,5.459,5.459h8a5.459,5.459,0,0,0,5.459-5.459v-8A5.459,5.459,0,0,0,13.455,0m3.717,13.6a3.624,3.624,0,0,1-3.624,3.624H5.366A3.624,3.624,0,0,1,1.742,13.6V5.413A3.624,3.624,0,0,1,5.366,1.789h8.183a3.624,3.624,0,0,1,3.624,3.624Z" fill="#080808"/>
  <path id="패스_9735" data-name="패스 9735" d="M38.878,34.321a4.908,4.908,0,1,0,4.908,4.908,4.908,4.908,0,0,0-4.908-4.908m0,8.089a3.181,3.181,0,1,1,3.181-3.181,3.181,3.181,0,0,1-3.181,3.181" transform="translate(-29.42 -29.725)" fill="#080808"/>
  <path id="패스_9736" data-name="패스 9736" d="M101.086,24.39a1.143,1.143,0,1,0,1.143,1.143,1.143,1.143,0,0,0-1.143-1.143" transform="translate(-86.558 -21.124)" fill="#080808"/>
</svg>
