<svg id="그룹_10441" data-name="그룹 10441" xmlns="http://www.w3.org/2000/svg" xmlns:xlink="http://www.w3.org/1999/xlink" width="21.829" height="15.28" viewBox="0 0 21.829 15.28">
  <defs>
    <clipPath id="clip-path">
      <rect id="사각형_5971" data-name="사각형 5971" width="21.829" height="15.28" fill="none"/>
    </clipPath>
  </defs>
  <g id="그룹_10440" data-name="그룹 10440" transform="translate(0 0)" clip-path="url(#clip-path)">
    <path id="패스_9747" data-name="패스 9747" d="M21.372,2.386a2.733,2.733,0,0,0-1.93-1.93C17.74,0,10.914,0,10.914,0S4.088,0,2.386.456a2.734,2.734,0,0,0-1.93,1.93A28.415,28.415,0,0,0,0,7.64a28.413,28.413,0,0,0,.456,5.254,2.734,2.734,0,0,0,1.93,1.93c1.7.456,8.528.456,8.528.456s6.826,0,8.528-.456a2.733,2.733,0,0,0,1.93-1.93,28.4,28.4,0,0,0,.456-5.254,28.4,28.4,0,0,0-.456-5.254" transform="translate(0 0)" fill="#080808"/>
    <path id="패스_9748" data-name="패스 9748" d="M36.381,24.739l5.671-3.274L36.381,18.19Z" transform="translate(-27.649 -13.825)" fill="#fff"/>
  </g>
</svg>
