<svg xmlns="http://www.w3.org/2000/svg" xmlns:xlink="http://www.w3.org/1999/xlink" width="155" height="37" viewBox="0 0 155 37">
  <defs>
    <clipPath id="clip-path">
      <rect id="사각형_210" data-name="사각형 210" width="155" height="37" transform="translate(-193 -171)" fill="#fff" stroke="#707070" stroke-width="1"/>
    </clipPath>
    <clipPath id="clip-path-2">
      <rect id="사각형_209" data-name="사각형 209" width="150" height="34" transform="translate(0.215 0.215)" fill="none"/>
    </clipPath>
  </defs>
  <g id="마스크_그룹_17" data-name="마스크 그룹 17" transform="translate(193 171)" clip-path="url(#clip-path)">
    <g id="그룹_96" data-name="그룹 96" transform="translate(-191.215 -169.215)">
      <g id="그룹_95" data-name="그룹 95" transform="translate(0 0)" clip-path="url(#clip-path-2)">
        <path id="패스_1362" data-name="패스 1362" d="M40.785,9.487a8.137,8.137,0,0,0-5.577-1.728,13.624,13.624,0,0,0-3.672.495,11.324,11.324,0,0,0-1.444.5l1.368,3.263a6.69,6.69,0,0,1,.685-.261,7.89,7.89,0,0,1,2.454-.392,3.961,3.961,0,0,1,2.7.8,2.89,2.89,0,0,1,.9,2.283H34.6a8.368,8.368,0,0,0-5.069,1.248,4.085,4.085,0,0,0-1.644,3.432,4.367,4.367,0,0,0,.7,2.438A4.63,4.63,0,0,0,30.6,23.251a7.4,7.4,0,0,0,3.123.61q3.484,0,4.764-2.178V23.63h4.238V14.706a6.632,6.632,0,0,0-1.944-5.219m-2.587,9.2a2.94,2.94,0,0,1-1.275,1.584,3.947,3.947,0,0,1-2.063.539,3.079,3.079,0,0,1-1.876-.508,1.634,1.634,0,0,1-.682-1.38q0-1.83,2.788-1.831H38.2Z" transform="translate(-16.787 -3.794)" fill="#050000"/>
        <path id="패스_1363" data-name="패스 1363" d="M246.308,8.247l-3.018,9.261-2.906-9.261h-4.457l-3.018,9.261L230,8.247h-4.381l5.153,15.639h3.985l3.323-9.708,3.212,9.708h3.985l5.181-15.639Z" transform="translate(-144.422 -4.109)" fill="#050000"/>
        <path id="패스_1364" data-name="패스 1364" d="M6.519,8.009A8.126,8.126,0,0,1,9.7,7.427v4.187c-.5-.039-.842-.058-1.017-.058a4.144,4.144,0,0,0-3.048,1.09,4.4,4.4,0,0,0-1.105,3.268V23.3H0V7.659H4.328V9.724A5.032,5.032,0,0,1,6.519,8.009" transform="translate(1.214 -3.58)" fill="#050000"/>
        <path id="패스_1365" data-name="패스 1365" d="M83.609,8.009a8.125,8.125,0,0,1,3.18-.582v4.187q-.756-.058-1.017-.058a4.144,4.144,0,0,0-3.048,1.09,4.4,4.4,0,0,0-1.105,3.268V23.3H77.09V7.659h4.325V9.724a5.045,5.045,0,0,1,2.194-1.716" transform="translate(-48.547 -3.58)" fill="#050000"/>
        <path id="패스_1366" data-name="패스 1366" d="M161.684,8.009a8.127,8.127,0,0,1,3.181-.582v4.187c-.5-.039-.842-.058-1.017-.058a4.144,4.144,0,0,0-3.048,1.09,4.4,4.4,0,0,0-1.105,3.268V23.3h-4.529V7.659h4.327V9.724a5.043,5.043,0,0,1,2.193-1.716" transform="translate(-98.943 -3.58)" fill="#050000"/>
        <path id="패스_1367" data-name="패스 1367" d="M119.693,11.249a7.231,7.231,0,0,0-2.92-2.833,8.693,8.693,0,0,0-4.152-.99,8.782,8.782,0,0,0-4.255,1.032,7.622,7.622,0,0,0-2.99,2.88,7.976,7.976,0,0,0-1.09,4.141v.057h0a8.464,8.464,0,0,0,1.062,4.288,7.194,7.194,0,0,0,2.917,2.833,9.25,9.25,0,0,0,8.408-.043,7.7,7.7,0,0,0,3.545-4.026h-4.377c-.045.066-.092.13-.138.19a3.873,3.873,0,0,1-3.09,1.438,3.92,3.92,0,0,1-3.173-1.5,4.477,4.477,0,0,1-.74-1.751h11.95a8.967,8.967,0,0,0,.1-1.365v-.059a8.464,8.464,0,0,0-1.06-4.288m-10.35,1.31c.043-.068.089-.134.136-.2.016-.021.028-.044.044-.066a.258.258,0,0,1,.024-.024,3.331,3.331,0,0,1,.519-.54,3.724,3.724,0,0,1,2.031-.838c.041-.006.079-.011.119-.014.1-.009.2-.014.3-.016.032,0,.063,0,.095,0h.036a3.817,3.817,0,0,1,2.556.889,3.609,3.609,0,0,1,.536.567.609.609,0,0,1,.042.051c.017.019.026.043.042.062.046.067.089.134.131.2a4.686,4.686,0,0,1,.568,1.484h-7.814a4.787,4.787,0,0,1,.631-1.554" transform="translate(-66.101 -3.58)" fill="#050000"/>
        <path id="패스_1368" data-name="패스 1368" d="M196.122,9.487a8.132,8.132,0,0,0-5.576-1.728,13.635,13.635,0,0,0-3.673.495,11.059,11.059,0,0,0-1.44.5V8.76l1.365,3.256a6.839,6.839,0,0,1,.684-.261,7.9,7.9,0,0,1,2.455-.392,3.974,3.974,0,0,1,2.7.8,2.9,2.9,0,0,1,.9,2.283h-3.6a8.377,8.377,0,0,0-5.069,1.248,4.083,4.083,0,0,0-1.641,3.432,4.373,4.373,0,0,0,.7,2.438,4.622,4.622,0,0,0,2.019,1.688,7.387,7.387,0,0,0,3.122.61q3.484,0,4.764-2.178V23.63h4.239V14.706a6.633,6.633,0,0,0-1.946-5.219m-2.587,9.2a2.938,2.938,0,0,1-1.276,1.584,3.929,3.929,0,0,1-2.061.539,3.073,3.073,0,0,1-1.874-.508,1.631,1.631,0,0,1-.682-1.38q0-1.83,2.788-1.831h3.106Z" transform="translate(-117.056 -3.794)" fill="#050000"/>
        <rect id="사각형_208" data-name="사각형 208" width="47.512" height="18.888" transform="translate(99.57 14.705) rotate(-16.495)" fill="#050000"/>
        <path id="패스_1369" data-name="패스 1369" d="M353.9,38.855c-.078.026-.134.063-.133.146a.2.2,0,0,1-.079.156.839.839,0,0,0-.222.331.746.746,0,0,1-.121.168c-.063.08-.13.157-.2.234a.273.273,0,0,1-.068.069.7.7,0,0,0-.278.336.821.821,0,0,1-.094.128l.057.133a1.381,1.381,0,0,0-.158.131c-.182.2-.367.407-.537.62a1,1,0,0,0-.242.414c0,.026-.038.05-.063.067-.1.066-.2.122-.289.192a.417.417,0,0,0-.1.13.583.583,0,0,1-.222.244.854.854,0,0,0-.133.1.323.323,0,0,1-.291.058.209.209,0,0,1-.107-.078.151.151,0,0,0-.175-.078.11.11,0,0,1-.143-.1.24.24,0,0,0-.111-.153.4.4,0,0,1-.074-.08,1.608,1.608,0,0,0-.161-.171.283.283,0,0,1-.112-.184.256.256,0,0,0-.06-.121.436.436,0,0,1-.1-.207.965.965,0,0,0-.225-.441.482.482,0,0,1-.136-.485.272.272,0,0,0-.044-.212c-.023-.045-.053-.087-.078-.133a.175.175,0,0,1,0-.184.358.358,0,0,0,.04-.264.353.353,0,0,1,.029-.306.1.1,0,0,0,.013-.054c0-.119,0-.238,0-.358s-.018-.259-.015-.388a.322.322,0,0,1,.062-.151.116.116,0,0,0,.007-.128,1.016,1.016,0,0,1-.07-.224.124.124,0,0,1,.034-.1.349.349,0,0,0,.1-.252,3.834,3.834,0,0,1,.1-.7,1.454,1.454,0,0,0,.048-.452.623.623,0,0,1,.167-.428.385.385,0,0,0,.1-.306,1.443,1.443,0,0,1,.051-.354c.012-.082.016-.164.034-.245a.976.976,0,0,1,.144-.369,1.1,1.1,0,0,0,.066-.13c.017-.033.032-.066.05-.1.029-.051.068-.1.093-.153a.2.2,0,0,1,.165-.134,2.668,2.668,0,0,1,.333-.01.2.2,0,0,1,.173.1.135.135,0,0,0,.14.072.188.188,0,0,1,.178.088,1.673,1.673,0,0,0,.163.191.291.291,0,0,0,.135.085.162.162,0,0,1,.134.122c.029.072.073.137.1.208a.352.352,0,0,1,.046.153.575.575,0,0,1-.121.336.962.962,0,0,0-.124.258,2.727,2.727,0,0,1-.139.461.691.691,0,0,0-.043.258.259.259,0,0,1-.078.188.093.093,0,0,0-.008.154.228.228,0,0,1,.029.056c-.033.034-.066.066-.1.1-.078.093-.157.185-.1.323a.1.1,0,0,1-.025.085.431.431,0,0,0-.117.317c-.019.156-.027.314-.053.47-.022.137-.078.269-.091.405a1.671,1.671,0,0,1-.112.4.2.2,0,0,0,0,.158.248.248,0,0,1-.04.308.1.1,0,0,0-.028.076c.007.115.023.228.031.344a.467.467,0,0,1-.009.133c-.029.134.009.173.145.171a.347.347,0,0,0,.259-.108.289.289,0,0,1,.16-.069c.079-.01.132-.044.127-.119-.008-.17.117-.264.2-.383.04-.056.067-.121.109-.174a2.253,2.253,0,0,1,.285-.339,1.443,1.443,0,0,0,.345-.43,2.379,2.379,0,0,1,.144-.2c.092-.134.178-.271.271-.4.036-.053.091-.093.13-.145.085-.115.164-.234.247-.352a.118.118,0,0,1,.014-.023,2.242,2.242,0,0,0,.4-.574.254.254,0,0,1,.045-.054.125.125,0,0,0,.042-.159c-.029-.076.012-.118.077-.155a.444.444,0,0,0,.141-.127.159.159,0,0,0,.021-.127.163.163,0,0,1,.034-.153.588.588,0,0,0,.072-.161,1.138,1.138,0,0,1,.063-.213.335.335,0,0,1,.366-.2.915.915,0,0,0,.125,0,.216.216,0,0,1,.171.08l.246.336a.273.273,0,0,0,.062.072c.121.077.247.145.366.224a1.564,1.564,0,0,1,.218.172.148.148,0,0,1,.021.1c0,.027-.024.054-.024.08a.867.867,0,0,1-.073.43.228.228,0,0,0,.023.17.245.245,0,0,1,.027.173c-.022.113-.046.227-.068.34a.1.1,0,0,0,0,.027c-.007.2-.011.407-.022.61a1.41,1.41,0,0,1-.029.233.2.2,0,0,0,.027.171.278.278,0,0,1,.04.154c-.009.177-.029.352-.042.527a.144.144,0,0,0,.015.091.224.224,0,0,1,.016.227.823.823,0,0,0-.006.394.632.632,0,0,1,.016.095c-.016.119-.041.236-.059.354,0,.026-.01.062,0,.08.054.076.028.144,0,.223a3.5,3.5,0,0,0-.1.42.219.219,0,0,1-.3.189c-.062-.021-.112-.036-.167.011a.1.1,0,0,1-.137-.016,6.518,6.518,0,0,1-.534-.542c-.08-.086-.08-.112-.013-.215a.1.1,0,0,0-.034-.156.252.252,0,0,1-.119-.275,4.906,4.906,0,0,0-.042-.554c-.008-.143,0-.286.008-.43.005-.1.021-.194.022-.291a.283.283,0,0,0-.036-.118c-.024-.054-.056-.1-.093-.172" transform="translate(-224.174 -20.919)" fill="#fff"/>
        <path id="패스_1370" data-name="패스 1370" d="M335.8,45.707a.541.541,0,0,0,.075-.083,1.573,1.573,0,0,0,.179-.328c.06-.2.261-.312.324-.51.008-.028.044-.047.067-.07a.671.671,0,0,0,.058-.058.224.224,0,0,0,.043-.21c-.016-.072-.086-.056-.139-.068a.986.986,0,0,1-.134-.034c-.033-.013-.076-.031-.089-.059a.315.315,0,0,0-.248-.176c-.057-.012-.131-.028-.15-.108a.47.47,0,0,1,.007-.363.2.2,0,0,0,.014-.158.434.434,0,0,1-.045-.241c0-.113-.03-.147-.141-.17-.041-.008-.085,0-.125-.013a.192.192,0,0,0-.241.135c-.04.1-.076.188-.187.224-.014,0-.027.026-.034.042-.059.157-.115.313-.172.47a1.586,1.586,0,0,1-.109.3.383.383,0,0,0-.06.249.544.544,0,0,1-.084.36.394.394,0,0,0-.069.328.589.589,0,0,1-.078.4,1.034,1.034,0,0,0-.106.6.152.152,0,0,1-.033.115.22.22,0,0,0-.052.23,1.51,1.51,0,0,1,.012.193c0,.055-.007.11,0,.163a.6.6,0,0,1,0,.313c-.022.053.058.177.111.19.073.019.114-.04.144-.089a.423.423,0,0,1,.183-.182c.033-.016.054-.062.077-.1.065-.1.124-.2.19-.29.119-.169.308-.286.375-.495,0-.017.027-.027.035-.042a1.706,1.706,0,0,0,.082-.172c.042-.107.066-.225.214-.242.042,0,.079-.044.107-.061m.337-3.225c.12-.144.309-.2.4-.367a.387.387,0,0,1,.105-.11c.072-.056.152-.1.225-.161a.118.118,0,0,1,.154-.013.169.169,0,0,0,.072.039.368.368,0,0,1,.29.212.347.347,0,0,0,.253.16.564.564,0,0,1,.432.37c.093.181.181.363.267.548a.218.218,0,0,1,.011.119,1.121,1.121,0,0,1-.047.215c-.029.079-.062.151-.01.234.011.016-.012.063-.03.086a.789.789,0,0,0-.111.437.6.6,0,0,1-.017.136.637.637,0,0,0-.048.284c0,.056-.053.125-.1.175-.057.067-.134.116-.141.216a.045.045,0,0,1-.011.024,2.046,2.046,0,0,0-.336.628.649.649,0,0,1-.108.161.626.626,0,0,0-.16.305.229.229,0,0,1-.127.169.224.224,0,0,0-.134.2.286.286,0,0,1-.089.183,3.206,3.206,0,0,0-.375.464.052.052,0,0,0-.008.011c-.08.233-.283.38-.406.586a1.6,1.6,0,0,1-.245.264.607.607,0,0,0-.224.341c0,.033-.047.071-.081.086a.429.429,0,0,0-.235.243.2.2,0,0,1-.119.1,2.436,2.436,0,0,0-.551.262.287.287,0,0,1-.223.042.46.46,0,0,1-.331-.177.08.08,0,0,0-.031-.029,3.726,3.726,0,0,1-.787-.739c-.009-.01-.023-.02-.027-.032-.035-.127-.09-.248-.134-.37a.6.6,0,0,0-.064-.177.065.065,0,0,1-.015-.024,1.891,1.891,0,0,0-.2-.436.958.958,0,0,1-.056-.338c0-.027.006-.06-.006-.082a.289.289,0,0,1,0-.316c.014-.022-.018-.088-.045-.119a.146.146,0,0,1-.014-.2.747.747,0,0,0,.053-.463.8.8,0,0,1-.016-.166c.009-.1.009-.2.117-.265.077-.049.067-.148.054-.232a.506.506,0,0,1,.111-.427.2.2,0,0,0,.043-.1,1.044,1.044,0,0,0,.021-.236,1.057,1.057,0,0,1,.1-.43.256.256,0,0,0,.021-.133.445.445,0,0,1,.122-.4.336.336,0,0,0,.084-.228.392.392,0,0,1,.084-.274.314.314,0,0,0,.049-.169.9.9,0,0,1,.134-.386.606.606,0,0,0,.112-.459.178.178,0,0,1,.061-.2.279.279,0,0,0,.123-.194c.006-.067.065-.08.127-.077.1,0,.2,0,.3.007.074,0,.149-.015.2.07.011.02.068.026.1.02a.271.271,0,0,1,.26.1,1.2,1.2,0,0,0,.188.166.263.263,0,0,0,.137.055.285.285,0,0,1,.27.164.324.324,0,0,0,.1.088c.03.021.079.028.1.055.091.168.272.267.343.45,0,.012.018.019.05.049" transform="translate(-213.516 -25.421)" fill="#fff"/>
        <path id="패스_1371" data-name="패스 1371" d="M390.1,27.161a.281.281,0,0,1-.146.193c-.119.088-.238.177-.352.272a.282.282,0,0,0-.089.122.309.309,0,0,1-.159.186.613.613,0,0,0-.261.283c-.1.217-.315.357-.364.6,0,.012-.017.022-.023.034a1.039,1.039,0,0,0-.073.147.187.187,0,0,1-.138.141.151.151,0,0,0-.124.134.336.336,0,0,1-.077.188c-.018.022-.017.06-.025.09l.027.025.114-.069a.255.255,0,0,1,.1-.046.578.578,0,0,0,.408-.214.3.3,0,0,1,.218-.106.205.205,0,0,0,.1-.037c.15-.1.3-.207.447-.308.022-.015.051-.035.074-.032a.232.232,0,0,0,.217-.124c.052-.07.1-.143.157-.211a.525.525,0,0,1,.107-.108,1.2,1.2,0,0,0,.378-.363.259.259,0,0,1,.1-.089.578.578,0,0,0,.3-.331.754.754,0,0,1,.142-.239,2.062,2.062,0,0,0,.3-.382.491.491,0,0,0,.088-.354.285.285,0,0,1,.022-.187,1.616,1.616,0,0,0,.163-.528.15.15,0,0,0-.06-.173.136.136,0,0,0-.156.017,1.8,1.8,0,0,0-.221.147,1.843,1.843,0,0,0-.151.156c-.028.029-.055.076-.088.082a.529.529,0,0,0-.272.207c-.122.132-.177.316-.334.418-.007,0-.009.016-.015.024-.088.107-.176.214-.263.323-.028.035-.071.071-.076.111" transform="translate(-249.407 -15.347)" fill="#fff"/>
        <path id="패스_1372" data-name="패스 1372" d="M366.5,20.412h0Z" transform="translate(-235.357 -11.962)" fill="#fff"/>
        <path id="패스_1373" data-name="패스 1373" d="M399.924,21.029a.158.158,0,0,0,.046.075.369.369,0,0,0-.046-.075" transform="translate(-256.931 -12.36)" fill="#fff"/>
        <path id="패스_1374" data-name="패스 1374" d="M395.181,20.44l.032-.026a.369.369,0,0,0-.032.026" transform="translate(-253.87 -11.963)" fill="#fff"/>
        <path id="패스_1375" data-name="패스 1375" d="M391.519,25.693a1.66,1.66,0,0,0-.219.147,1.834,1.834,0,0,0-.153.157c-.028.029-.054.075-.088.082a.535.535,0,0,0-.272.207c-.122.132-.178.315-.334.418-.007,0-.009.016-.015.023-.086.109-.175.215-.261.324-.03.035-.072.072-.077.111a.278.278,0,0,1-.145.193c-.12.088-.239.177-.353.271a.284.284,0,0,0-.088.123.319.319,0,0,1-.159.186.622.622,0,0,0-.261.283c-.1.218-.314.358-.364.6,0,.011-.016.022-.024.034a1.044,1.044,0,0,0-.073.147.185.185,0,0,1-.137.141.151.151,0,0,0-.126.134.325.325,0,0,1-.077.188.24.24,0,0,0-.023.09l.027.025c.037-.023.074-.047.114-.069a.235.235,0,0,1,.1-.046.58.58,0,0,0,.408-.214.3.3,0,0,1,.219-.106.2.2,0,0,0,.1-.037c.149-.1.3-.207.446-.309a.126.126,0,0,1,.075-.031.233.233,0,0,0,.218-.124c.052-.07.1-.143.157-.212a.515.515,0,0,1,.106-.107,1.222,1.222,0,0,0,.379-.363.244.244,0,0,1,.1-.089.572.572,0,0,0,.3-.333.768.768,0,0,1,.142-.238,2.107,2.107,0,0,0,.3-.382.5.5,0,0,0,.089-.354.286.286,0,0,1,.021-.188,1.629,1.629,0,0,0,.165-.527.151.151,0,0,0-.061-.173.135.135,0,0,0-.156.017" transform="translate(-249.407 -15.347)" fill="#fff"/>
        <path id="패스_1376" data-name="패스 1376" d="M309.275,31.876a1.1,1.1,0,0,1-.39-.229l0,0a.153.153,0,0,1-.122-.023c-.047-.029-.092-.062-.138-.093a.165.165,0,0,0-.275.067.448.448,0,0,0-.034.076.43.43,0,0,1-.046.1v0a4.655,4.655,0,0,1-.149.46c-.077.188-.079.333-.13.426s-.127.2-.209.35a.987.987,0,0,0-.067.422.365.365,0,0,1-.014.258,2.079,2.079,0,0,1-.317.521c-.06.083-.113.17-.166.257a.135.135,0,0,0-.025.078.166.166,0,0,1-.1.183.244.244,0,0,0-.113.163c-.029.123-.143.191-.238.26-.062.045-.125.078-.144.16a.124.124,0,0,1-.04.057c-.108.1-.214.208-.327.3s-.212.166-.322.243a.527.527,0,0,1-.161.079c-.146.038-.147.035-.106.193a1.017,1.017,0,0,1-.4.235.32.32,0,0,0-.224.193,1.119,1.119,0,0,1-.427.423c-.15.093-.334.152-.417.336-.014.03-.054.049-.08.073l-.188.166c-.028.026-.052.053-.081.076-.1.08-.2.163-.307.238a.794.794,0,0,0-.314.458.415.415,0,0,0-.109-.024.339.339,0,0,0-.27.144,2.4,2.4,0,0,1-.327.319c-.062.055-.139.093-.206.144-.029.021-.065.049-.072.081-.024.129-.119.166-.229.188a.179.179,0,0,0-.153.143,1.4,1.4,0,0,0-.021.143c-.137-.055-.163-.1-.141-.231a.3.3,0,0,0,.008-.109.167.167,0,0,1,.057-.176.1.1,0,0,0,.035-.124c-.074-.138-.013-.274,0-.409a.8.8,0,0,1,.075-.253,3.03,3.03,0,0,0,.1-.58,1.245,1.245,0,0,1,.031-.355s-.15-.019-.037-.126a1.563,1.563,0,0,0,.206-.519l.2-.289c0-.055,0-.11-.009-.16a.288.288,0,0,1,.076-.231.355.355,0,0,0,.084-.2c.021-.129-.022-.274.087-.384.013-.013.007-.044.009-.068.017-.156.03-.313.051-.468a.72.72,0,0,0-.377-.76,1.467,1.467,0,0,1-.415-.268.107.107,0,0,0-.057-.037.211.211,0,0,1-.153-.143c-.038-.092-.1-.1-.191-.047a1.021,1.021,0,0,1-.124.06.334.334,0,0,0-.245.288c-.023.263-.069.525-.1.788a.233.233,0,0,0,.042.126.163.163,0,0,1,.028.144c-.044.141-.084.284-.13.425a.167.167,0,0,0,.015.16.122.122,0,0,1,.007.132.957.957,0,0,1-.075.163.363.363,0,0,0-.051.24c0,.1,0,.2-.007.291,0,.041-.032.081-.03.119a.89.89,0,0,1-.088.4.938.938,0,0,0-.056.42.278.278,0,0,1-.063.217.267.267,0,0,0-.076.217,1.11,1.11,0,0,1-.078.491l-.03.162a.494.494,0,0,1-.034.177,1.936,1.936,0,0,0,.013.318c.019.067-.055.305-.035.372a6.5,6.5,0,0,1-.041.677l-.1.47.086.291-.42.125-.318.238-.526.325-.174.225-.22.066c0,.074-.034.1-.1.1a.3.3,0,0,0-.206.1.659.659,0,0,1-.177.13c-.151.061-.307.1-.461.157a.3.3,0,0,0-.214.25c-.01.152,0,.312.184.384a.555.555,0,0,1,.1.054.475.475,0,0,1,.086.067c.083.087.16.18.247.262a.223.223,0,0,1,.051.071s.221.138.28.107.214.073.386.05a.631.631,0,0,0,.321-.165c.069-.047.257-.22.257-.22a.9.9,0,0,1,.282-.2c.094-.041.19-.081.285-.121l.037.02c-.008.022-.018.043-.026.065a.241.241,0,0,0,.023.228.348.348,0,0,1,.043.317,1.163,1.163,0,0,0-.051.258c0,.129.014.259.017.389a1.83,1.83,0,0,1-.021.191.7.7,0,0,0-.013.207.316.316,0,0,1-.055.262.266.266,0,0,0,.007.368.386.386,0,0,1,.042.14c.006.041,0,.083,0,.125a1.492,1.492,0,0,0,.229.7.5.5,0,0,1,.052.142c.02.074.029.151.05.227.024.094.061.184.085.277a.163.163,0,0,0,.1.123c.031.015.079.029.09.054.038.1.128.13.208.175.1.06.14.056.218-.028a.106.106,0,0,1,.143-.031.162.162,0,0,0,.229-.167,1.971,1.971,0,0,1,.027-.342.465.465,0,0,0-.155-.518.144.144,0,0,1-.066-.167.711.711,0,0,0,.036-.261,2.153,2.153,0,0,1,.01-.555.271.271,0,0,0-.043-.185.277.277,0,0,1-.038-.144c0-.1.014-.2.02-.292a.253.253,0,0,0,0-.11.541.541,0,0,1,.021-.332.4.4,0,0,0,0-.334.168.168,0,0,1,.006-.186.179.179,0,0,0,.013-.22.106.106,0,0,1,0-.091.3.3,0,0,0,.024-.228.48.48,0,0,1,.012-.137,1.233,1.233,0,0,0,.035-.4.265.265,0,0,1,.08-.255.222.222,0,0,0,.074-.2.274.274,0,0,1,.09-.251c.056-.056.107-.117.167-.167a.246.246,0,0,1,.121-.058.2.2,0,0,0,.175-.138.57.57,0,0,1,.454-.321c.035-.007.071-.013.1-.019.014-.057.011-.117.039-.151a.411.411,0,0,1,.334-.2.131.131,0,0,0,.148-.1.3.3,0,0,1,.182-.213,2.287,2.287,0,0,0,.431-.371.584.584,0,0,1,.21-.155.3.3,0,0,0,.217-.232.134.134,0,0,1,.093-.1.918.918,0,0,0,.178-.1c.065-.046.124-.1.185-.149.079-.063.156-.13.237-.192a.686.686,0,0,1,.183-.116.3.3,0,0,0,.141-.1,3,3,0,0,1,.227-.243.093.093,0,0,1,.063-.022.225.225,0,0,0,.179-.093l.328-.341a.231.231,0,0,1,.064-.054,1.336,1.336,0,0,0,.47-.425c.076-.091.132-.192.268-.192a.062.062,0,0,0,.036-.021q.2-.157.4-.319c.037-.029.066-.067.1-.092a.084.084,0,0,1,.137.038.241.241,0,0,1,.022.094c0,.074,0,.146,0,.222a.889.889,0,0,1-.057.49.056.056,0,0,0,0,.041,2.077,2.077,0,0,1,.042.413,1.3,1.3,0,0,1-.036.495.577.577,0,0,0-.018.15c0,.175.021.352.016.527,0,.085-.062.17-.061.252s.06.174.07.264a1.321,1.321,0,0,1-.046.591c-.006.017-.016.042-.009.054.057.094.018.2.041.3a.288.288,0,0,1-.055.274.122.122,0,0,0-.01.153.352.352,0,0,1,.054.182.757.757,0,0,0,.162.5c.02.032.036.065.053.1.036.075.065.153.107.223a.359.359,0,0,1,.069.262.142.142,0,0,0,.039.154.8.8,0,0,0,.23.129.317.317,0,0,1,.168.106.355.355,0,0,0,.466.011,1.911,1.911,0,0,1,.165-.149c.13-.094.137-.113.066-.263-.045-.094-.039-.127.047-.186.044-.029.091-.056.088-.114-.007-.118.063-.241-.021-.355a.061.061,0,0,1,0-.053c.048-.086,0-.139-.063-.186a.16.16,0,0,1-.058-.159c.015-.191.016-.385.022-.578a.553.553,0,0,1,0-.139,2.009,2.009,0,0,0,.044-.482.694.694,0,0,0-.008-.384c-.007-.013.006-.035.008-.054.015-.147.032-.295.043-.442a.379.379,0,0,0-.015-.1,1.626,1.626,0,0,1-.019-.162c-.007-.184.08-.363.021-.549a.708.708,0,0,0,0-.395,2.7,2.7,0,0,0-.041-.523.222.222,0,0,1,.011-.123,1.323,1.323,0,0,0,.051-.442c0-.111-.006-.222,0-.333a1.512,1.512,0,0,1,.039-.188.688.688,0,0,0,.016-.135.893.893,0,0,1,.064-.394.525.525,0,0,0,.054-.338.235.235,0,0,1,.024-.119.852.852,0,0,0,.078-.35.241.241,0,0,1,.075-.2.115.115,0,0,0,.04-.124c-.01-.045-.01-.092-.017-.138a.172.172,0,0,1,.04-.155.483.483,0,0,0,.1-.323.813.813,0,0,1,.037-.19c.009-.035.044-.064.048-.1a4.852,4.852,0,0,0,.12-.741.122.122,0,0,1,.066-.128.137.137,0,0,0,.083-.121,1.761,1.761,0,0,0-.038-.2c-.04-.143-.006-.278-.033-.37a1.317,1.317,0,0,0-.174-.327.506.506,0,0,0-.3-.242" transform="translate(-190.798 -19.106)" fill="#fff"/>
        <path id="패스_1377" data-name="패스 1377" d="M377.757,19.158a1.6,1.6,0,0,1-.163.527.279.279,0,0,0-.022.187.5.5,0,0,1-.088.355,2.038,2.038,0,0,1-.3.382.746.746,0,0,0-.141.238.582.582,0,0,1-.3.332.24.24,0,0,0-.1.09,1.252,1.252,0,0,1-.379.363.522.522,0,0,0-.107.106c-.056.069-.1.141-.159.213a.228.228,0,0,1-.217.123.127.127,0,0,0-.075.032c-.15.1-.3.207-.446.308a.2.2,0,0,1-.1.038.3.3,0,0,0-.219.106.574.574,0,0,1-.408.214.267.267,0,0,0-.1.045c-.038.022-.076.047-.114.069l-.025-.024a.235.235,0,0,1,.023-.089.329.329,0,0,0,.077-.189.151.151,0,0,1,.125-.133.186.186,0,0,0,.138-.143,1.008,1.008,0,0,1,.074-.147c.007-.012.021-.021.023-.034.051-.242.266-.383.364-.6a.612.612,0,0,1,.261-.284.313.313,0,0,0,.159-.185.271.271,0,0,1,.088-.122c.114-.095.233-.184.352-.273a.276.276,0,0,0,.146-.193c0-.04.048-.075.076-.111l.263-.323c.006-.007.008-.019.015-.023.156-.1.212-.288.334-.42a.528.528,0,0,1,.272-.206c.034-.007.059-.054.087-.083a1.755,1.755,0,0,1,.153-.156,1.664,1.664,0,0,1,.219-.147c.047-.027.1-.056.156-.018a.152.152,0,0,1,.06.174m1.215-.682c-.076-.156-.335-.376-.353-.535s-.126-.277-.12-.4a.3.3,0,0,0-.031-.145.144.144,0,0,1-.047-.074.227.227,0,0,0-.177-.193.174.174,0,0,1-.059-.036l-.41-.355a1.247,1.247,0,0,0-.118-.1c-.024-.017-.07-.036-.088-.026a4.3,4.3,0,0,1-.406.159,1.979,1.979,0,0,0-.392.328c-.009.01-.021.017-.031.027a.31.31,0,0,0-.115.193c-.007.122-.335.323-.54.439a2.258,2.258,0,0,0-.434.37l-.023,0a.125.125,0,0,1-.011.075.207.207,0,0,1-.061.074.186.186,0,0,0-.08.195.113.113,0,0,1-.045.123,2.245,2.245,0,0,1-.217.146.281.281,0,0,0-.138.129,1.117,1.117,0,0,1-.091.138c-.087.126-.179.247-.257.379a.339.339,0,0,1-.179.163c-.035.012-.083.045-.088.074a.281.281,0,0,1-.218.228c-.059.02-.118.054-.12.123a.4.4,0,0,1-.134.281.435.435,0,0,0-.044.086,1.063,1.063,0,0,1-.094.148c-.131.151-.266.3-.4.447a.289.289,0,0,0-.024.034c-.048.074-.1.146-.143.22-.1.153-.195.3-.29.46-.028.047-.038.107-.069.152-.116.173-.23.348-.356.513-.074.1-.172.173-.139.313a.053.053,0,0,1-.008.027c-.066.138-.134.275-.2.414a.638.638,0,0,0-.037.158c-.009.06.008.129-.016.178a1.358,1.358,0,0,1-.211.326.471.471,0,0,0-.107.465c.038.175.086.348.137.521a.188.188,0,0,0,.069.079.422.422,0,0,0,.083.039c-.007.058-.014.108-.019.159-.01.1-.07.143-.144.077a.587.587,0,0,0-.312-.16c-.067-.011-.132-.039-.2-.049-.105-.017-.214-.019-.318-.043-.14-.029-.277-.072-.415-.111a.6.6,0,0,1-.128-.049c-.075-.041-.146-.088-.218-.132-.057.057-.082.134-.164.111a2.281,2.281,0,0,1-.292-.089.232.232,0,0,1-.112-.115.61.61,0,0,1,0-.511.55.55,0,0,0,.062-.311.191.191,0,0,1,.076-.194.19.19,0,0,0,.071-.211.18.18,0,0,1,.045-.168c.036-.042.067-.09.1-.135.067-.1.128-.194.2-.281.163-.189.334-.373.5-.559.035-.037.072-.071.108-.107a.952.952,0,0,0,.118-.118,2.448,2.448,0,0,1,.707-.624.224.224,0,0,1,.09-.033,1.776,1.776,0,0,1,.234-.021.3.3,0,0,0,.22-.1.313.313,0,0,1,.146-.1.491.491,0,0,0,.294-.195c.076-.094.079-.111.009-.219a.24.24,0,0,1-.049-.1c-.006-.075-.056-.1-.109-.131a.582.582,0,0,1-.15-.117c-.08-.093-.148-.2-.29-.209a.044.044,0,0,1-.03-.024c-.041-.115-.146-.163-.229-.235a.186.186,0,0,0-.2-.049.11.11,0,0,1-.128-.019.256.256,0,0,0-.222-.058c-.117.02-.244-.006-.345.085a.1.1,0,0,1-.065.02.41.41,0,0,0-.273.119,1.935,1.935,0,0,1-.51.333.09.09,0,0,0-.055.04c-.057.127-.181.183-.276.272a.243.243,0,0,0-.073.1.474.474,0,0,1-.151.214c-.034.031-.083.061-.095.1-.039.132-.153.193-.233.287-.1.112-.25.189-.241.373,0,.017-.024.037-.037.056-.083.118-.167.235-.248.355a.235.235,0,0,0-.049.1.5.5,0,0,1-.159.317.446.446,0,0,0-.091.122.221.221,0,0,0-.026.143.288.288,0,0,1-.109.324.292.292,0,0,0-.1.23.228.228,0,0,1-.044.138.177.177,0,0,0-.029.192c.022.078.087.151.04.238-.062.117.094.137.1.224a.257.257,0,0,1,0,.027.431.431,0,0,0,.073.29.15.15,0,0,1,.024.078.362.362,0,0,0,.124.256c.033.039.061.083.092.122l.412.509.211.264a.255.255,0,0,1,.187.123.289.289,0,0,0,.216.111.5.5,0,0,1,.149.063c.058.029.113.086.17.086a1.862,1.862,0,0,1,.326.05c.113.018.228.027.339.04.036.127.038.131-.02.2-.072.085-.151.164-.226.245-.127.135-.293.229-.376.407a.542.542,0,0,1-.114.12,1.162,1.162,0,0,0-.109.109,4.041,4.041,0,0,1-.564.577.256.256,0,0,0-.081.109.283.283,0,0,1-.142.181.093.093,0,0,0-.061.1c.014.073-.029.11-.08.149a1.524,1.524,0,0,0-.125.11c-.1.093-.2.189-.308.283-.083.074-.169.145-.254.217a.107.107,0,0,0-.038.123.3.3,0,0,1-.006.146.329.329,0,0,0,.08.376,1.684,1.684,0,0,1,.427.627.151.151,0,0,0,.145.106c.072.009.142.03.214.046a.3.3,0,0,0,.069.006.319.319,0,0,0,.293-.18.383.383,0,0,1,.159-.148,1.093,1.093,0,0,0,.182-.147.093.093,0,0,0,.026-.125.083.083,0,0,1,.023-.111.348.348,0,0,0,.062-.075c.147-.241.405-.376.575-.6,0-.007.016-.009.023-.014a2.009,2.009,0,0,0,.282-.245,1.513,1.513,0,0,1,.336-.306,2.336,2.336,0,0,0,.322-.324c.013-.013.032-.019.045-.031a.161.161,0,0,0,.04-.04,1.267,1.267,0,0,1,.363-.38,1.023,1.023,0,0,0,.243-.284,1.167,1.167,0,0,1,.151-.2,1.8,1.8,0,0,0,.2-.235,1.122,1.122,0,0,1,.277-.309.283.283,0,0,1,.09-.034c.01.039.017.064.023.091.026.1.05.13.148.134a.151.151,0,0,1,.137.078,1.1,1.1,0,0,1,.111.221.157.157,0,0,0,.145.125.484.484,0,0,1,.19.072.343.343,0,0,0,.159.077.1.1,0,0,1,.07.055c.056.182.2.206.358.2a.254.254,0,0,1,.19.061.323.323,0,0,0,.126.051c.049.012.1.007.152.018a1.365,1.365,0,0,0,.753-.022.8.8,0,0,1,.273-.034.265.265,0,0,0,.166-.048.385.385,0,0,1,.187-.076.387.387,0,0,0,.219-.069.76.76,0,0,1,.4-.137.337.337,0,0,0,.138-.051c.053-.029.1-.07.151-.1.027-.016.067-.038.089-.028.1.047.167,0,.218-.087a.091.091,0,0,1,.13-.042.106.106,0,0,0,.139-.022.967.967,0,0,1,.286-.194.268.268,0,0,1,.171-.036c.12.012.249.045.345-.074.014-.017.05-.02.077-.028.132-.042.289-.028.385-.158.011-.015.042-.015.064-.022.158-.042.332.033.482-.065a.038.038,0,0,1,.027,0,.166.166,0,0,0,.15-.057.57.57,0,0,1,.311-.151l.077.1c.068-.03.127-.055.186-.083.078-.036.091-.065.078-.153a.888.888,0,0,0-.018-.139.675.675,0,0,0-.2-.386.3.3,0,0,1-.089-.134.235.235,0,0,0-.106-.138.585.585,0,0,1-.126-.122c-.041-.051-.074-.108-.112-.16a.225.225,0,0,0-.177-.095.2.2,0,0,1-.12-.05.274.274,0,0,0-.341-.058.458.458,0,0,1-.122.023c-.035.007-.071.014-.106.023a2.607,2.607,0,0,1-.263.079.324.324,0,0,0-.217.11.326.326,0,0,1-.2.106.979.979,0,0,0-.372.095,1.625,1.625,0,0,0-.232.119.206.206,0,0,1-.076.029c-.106.033-.215.057-.317.1a.947.947,0,0,1-.422.122c-.045,0-.1.046-.143.073a.79.79,0,0,1-.129.077c-.1.033-.2.05-.292.082a.636.636,0,0,1-.376.07.049.049,0,0,0-.041.008.4.4,0,0,1-.326.118c-.024,0-.049.027-.074.035a1.507,1.507,0,0,1-.16.043,1.036,1.036,0,0,0-.179.023,1.031,1.031,0,0,1-.643,0,1.019,1.019,0,0,1-.45-.378c-.009-.009-.007-.027-.011-.039-.018-.087-.038-.173-.057-.26a.235.235,0,0,1,.074-.24c.069-.062.125-.138.194-.2a.777.777,0,0,1,.193-.131,1.326,1.326,0,0,0,.6-.394.159.159,0,0,1,.173-.06.161.161,0,0,0,.185-.063.227.227,0,0,1,.169-.105.648.648,0,0,0,.355-.2.762.762,0,0,1,.444-.3.135.135,0,0,0,.072-.039,5.424,5.424,0,0,0,.372-.4.671.671,0,0,1,.244-.222,2.262,2.262,0,0,0,.448-.272c.025-.019.062-.023.088-.041a2.407,2.407,0,0,0,.351-.248c.183-.183.35-.384.52-.583a1.356,1.356,0,0,0,.132-.209,1.177,1.177,0,0,1,.072-.147c.116-.139.124-.34.269-.463.006,0,0-.017.008-.026a1.157,1.157,0,0,1,.243-.415.22.22,0,0,0,.058-.135.261.261,0,0,1,.1-.192c.025-.019.055-.07.045-.091a.253.253,0,0,1,.031-.237.24.24,0,0,0,.008-.123c-.008-.11-.028-.22-.029-.33,0-.091,0-.182.007-.273a2.942,2.942,0,0,0-.038-.783" transform="translate(-236.404 -9.511)" fill="#fff"/>
      </g>
    </g>
  </g>
</svg>
